<svg xmlns="http://www.w3.org/2000/svg" width="1015" height="86" viewBox="0 0 1015 86" fill="none">
<path d="M1014.28 76.6199V77.5999C1010.13 77.5999 1005.98 77.5699 1001.83 77.6299C1000.45 77.6499 999.6 77.5199 999.46 75.7899C999.3 73.8699 998.56 71.9999 998.31 70.0799C998.13 68.6699 997.46 68.4199 996.22 68.4399C990.69 68.4899 985.16 68.5199 979.63 68.4199C978.19 68.3899 977.62 68.9699 977.22 70.1999C976.55 72.2799 975.77 74.3199 975.03 76.3799C974.78 77.0699 974.59 77.6499 973.58 77.6399C968.57 77.5799 963.56 77.6099 958.47 77.6099C958.54 77.1399 958.53 76.8899 958.62 76.6799C966.28 58.3899 973.92 40.0999 981.62 21.8299C982.7 19.2599 984.7 17.7299 987.57 17.4199C991.87 16.9599 996.19 17.3499 1000.49 17.1899C1001.83 17.1399 1001.85 18.1299 1002.03 18.9499C1004.83 32.3499 1007.56 45.7699 1010.41 59.1599C1011.65 64.9899 1012.53 70.9099 1014.27 76.6299L1014.28 76.6199ZM990.71 33.5399C987.98 40.9699 985.47 47.8599 982.9 54.7399C982.54 55.7099 982.44 56.2199 983.75 56.2099C987.16 56.1599 990.57 56.1599 993.98 56.2099C995.13 56.2299 995.38 55.7899 995.16 54.7699C993.71 47.8899 992.27 41.0099 990.71 33.5399Z" fill="#02579F"/><path d="M99.4654 65.562C96.0246 71.4189 90.6068 74.3473 83.2125 74.3473C78.454 74.3473 74.4272 73.1028 71.1325 70.6135C67.8382 68.1242 65.6419 64.3172 64.5436 59.1924C61.6884 64.0978 57.1128 67.8316 50.8165 70.3938C44.5205 72.9563 37.5288 74.2376 29.8415 74.2376C10.294 74.2376 0.520325 65.0861 0.520325 46.7831V5.82143C0.520325 4.28397 1.03279 3.00277 2.05778 1.97782C3.15594 0.879654 4.47373 0.330566 6.01119 0.330566C7.54862 0.330566 8.82982 0.879654 9.85478 1.97782C10.9529 3.00277 11.502 4.28397 11.502 5.82143V27.1259C15.3822 23.1725 20.2142 21.1958 25.9979 21.1958C30.537 21.1958 34.5636 22.294 38.0777 24.4903C41.6653 26.6135 44.4472 29.5785 46.4238 33.3854C48.4737 37.1924 49.4987 41.5118 49.4987 46.3439C49.4987 49.7847 48.9864 53.0061 47.9613 56.0078C46.9362 59.0095 45.4355 61.6449 43.4589 63.9145C49.2426 62.3771 53.8914 59.4854 57.4054 55.2393C60.9198 50.9928 62.6767 45.9048 62.6767 39.9747V26.6867C62.6767 25.1492 63.1894 23.868 64.2141 22.8431C65.3125 21.7449 66.6302 21.1958 68.1677 21.1958C69.7051 21.1958 70.9864 21.7449 72.0111 22.8431C73.1095 23.868 73.6587 25.1492 73.6587 26.6867V49.968C73.6587 55.0195 74.464 58.7533 76.0744 61.1694C77.6851 63.5851 80.2108 64.7931 83.652 64.7931C87.6051 64.7931 90.6436 63.4021 92.7667 60.6202C94.963 57.765 96.0614 53.7018 96.0614 48.4306V31.7383H89.0329C87.4955 31.7383 86.1777 31.2258 85.0794 30.2008C84.0547 29.1758 83.5419 27.9313 83.5419 26.467C83.5419 25.0028 84.0547 23.7582 85.0794 22.7333C86.1777 21.7083 87.4955 21.1958 89.0329 21.1958H96.0614V5.93123C96.0614 4.39381 96.5737 3.1126 97.5985 2.08765C98.6968 0.989453 100.015 0.440382 101.552 0.440382C103.089 0.440382 104.371 0.989453 105.396 2.08765C106.494 3.1126 107.043 4.39381 107.043 5.93123V21.1958H121.319C122.857 21.1958 124.138 21.7083 125.163 22.7333C126.261 23.7582 126.81 25.0028 126.81 26.467C126.81 27.9313 126.261 29.1758 125.163 30.2008C124.138 31.2258 122.857 31.7383 121.319 31.7383H107.043V49.858C107.043 58.863 109.569 63.3657 114.62 63.3657C117.11 63.3657 119.159 62.4139 120.77 60.5102C121.649 59.4854 122.454 58.7165 123.186 58.2041C123.918 57.6185 124.76 57.3255 125.712 57.3255C127.249 57.3255 128.53 57.8383 129.555 58.863C130.58 59.8148 131.093 61.0593 131.093 62.5968C131.093 64.5005 130.324 66.3674 128.787 68.1975C127.249 70.0279 125.199 71.4921 122.637 72.5901C120.074 73.7617 117.366 74.3473 114.511 74.3473C111.143 74.3473 108.178 73.5784 105.615 72.0413C103.126 70.5767 101.076 68.4172 99.4654 65.562ZM72.4506 10.6534C71.279 11.8248 69.8516 12.4104 68.1677 12.4104C66.4837 12.4104 65.0563 11.8248 63.8847 10.6534C62.7135 9.48201 62.1279 8.09097 62.1279 6.48033C62.1279 4.79645 62.7135 3.36886 63.8847 2.19745C65.1295 1.02608 66.557 0.440382 68.1677 0.440382C69.8516 0.440382 71.279 1.02608 72.4506 2.19745C73.6219 3.36886 74.2075 4.79645 74.2075 6.48033C74.2075 8.09097 73.6219 9.48201 72.4506 10.6534ZM15.4555 59.0827C18.0911 61.9379 21.3856 63.3657 25.339 63.3657C29.0728 63.3657 32.1843 61.9379 34.6733 59.0827C37.1626 56.2276 38.4071 52.457 38.4071 47.7717C38.4071 43.1593 37.1262 39.3887 34.5636 36.4603C32.0012 33.5319 28.8165 32.0677 25.0095 32.0677C21.2026 32.0677 18.0179 33.4954 15.4555 36.3506C12.893 39.2058 11.6118 42.9396 11.6118 47.552C11.6118 52.3105 12.893 56.1543 15.4555 59.0827Z" fill="#00353B" transform="translate(470, 5)"/>
<path d="M949.49 16.11C951.87 16.11 954.24 16.46 956.51 17.16C957.37 17.42 958.23 17.69 959.11 17.88C960.85 18.27 961.77 18.54 961.36 20.4C960.57 24.04 960.09 27.75 959.45 31.64C954.85 29.41 950.06 28.47 945.03 28.79C943.05 28.92 941.15 29.33 939.52 30.48C936.87 32.34 936.73 35.09 939.18 37.23C941.03 38.85 943.24 39.9 945.41 41.01C947.79 42.23 950.14 43.49 952.35 45.03C962.29 51.95 960.2 63.89 955.01 69.88C950.61 74.95 944.75 77.06 938.35 78.08C937.91 78.15 935.3 78.68 931.47 78.68L926.86 78.57C924.43 78.45 920.62 77.29 917.55 76.37C915.29 75.69 914.65 74.71 915.14 72.46C915.78 69.54 916.18 66.56 916.6 63.59C916.79 62.21 917.13 61.76 918.58 62.49C923.59 65.04 928.92 66.19 934.57 65.89C936.72 65.78 938.75 65.33 940.55 64.15C943.49 62.22 943.73 58.5 941.08 56.17C939.42 54.72 937.48 53.7 935.51 52.73C933.11 51.55 930.77 50.27 928.57 48.74C917.23 40.89 920.7 28.02 928 22.22C931.98 19.06 936.56 17.38 941.52 16.58C941.9 16.52 942.97 16.1 946.95 16.1H949.5L949.49 16.11Z" fill="#02579F"/>
<path d="M838.17 25.91C837.95 25.39 837.68 24.94 837.13 24.64C832.13 21.95 826.98 19.67 821.37 18.55V17.09C829.33 17.12 837.28 17.2 845.24 17.17C851.78 17.14 853.52 19.52 854.31 24.63C855.23 30.55 856.54 36.41 857.77 42.28C857.95 43.15 857.89 43.84 857.5 44.57C856.49 44.49 856.32 43.58 855.93 42.92C852.07 36.33 846.86 31.03 840.52 26.81C839.83 26.35 839.2 25.52 838.16 25.91H838.17Z" fill="#F8A51A"/>
<path d="M838.17 25.91C839.21 25.52 839.84 26.35 840.53 26.81C846.87 31.03 852.08 36.33 855.94 42.92C856.33 43.58 856.5 44.49 857.51 44.57C858.98 48.91 860.1 53.34 860.96 58.52C865.15 47.27 869.1 36.69 873.04 26.11C873.91 23.76 874.83 21.42 875.61 19.04C876.04 17.71 876.66 17.12 878.18 17.16C882.89 17.27 887.61 17.2 892.34 17.2C892.86 17.89 892.29 18.46 892.09 18.97C884.38 37.94 876.64 56.89 868.94 75.86C868.46 77.04 868 77.66 866.55 77.63C862.16 77.51 857.77 77.55 853.37 77.61C852.24 77.63 851.68 77.36 851.37 76.17C847 59.41 842.59 42.67 838.18 25.92L838.17 25.91Z" fill="#02579F"/>
<path d="M897.18 77.6099C895.31 77.6099 893.42 77.4599 891.57 77.6499C889.58 77.8599 889.39 77.13 889.69 75.39C891.08 67.32 892.32 59.22 893.64 51.14C895.39 40.41 897.2 29.7 898.86 18.96C899.09 17.45 899.63 17.1499 901 17.1799C904.99 17.2599 908.97 17.2499 912.96 17.1799C914.36 17.1599 914.71 17.44 914.46 18.96C911.37 37.77 908.36 56.59 905.35 75.41C905.11 76.93 904.73 77.92 902.79 77.67C900.95 77.43 899.05 77.6199 897.18 77.6199V77.6099Z" fill="#02579F"/>
<path d="M0.99999 29.5701C1.46999 27.8801 1.82999 26.1501 2.40999 24.4901C5.23999 16.4201 12.9 12.6301 20.86 15.7001C24.11 16.9601 26.9 16.9201 30.07 15.6001C35.76 13.2401 41.14 13.9401 45.86 18.1601C47.02 19.2001 47.45 19.91 45.9 21.26C38.74 27.54 39.48 36.9101 47.47 42.2401C48.48 42.9101 48.86 43.3601 48.36 44.6101C46.71 48.7401 44.4 52.4401 41.38 55.6901C38.86 58.4001 35.78 59.2801 32.42 57.7001C28.12 55.6801 24 55.7601 19.75 57.7501C16.3 59.3701 13.34 58.3201 10.85 55.6301C5.76999 50.1401 2.72999 43.6701 1.47999 36.3201C1.35999 35.5901 1.15999 34.87 0.98999 34.15C0.98999 32.63 0.98999 31.1001 0.98999 29.5801L0.99999 29.5701Z" fill="black"/>
<path d="M36.55 0.119995C36.9 6.10999 33.7 11.2 28.41 13.01C27.33 13.38 25.98 14.11 25.1 13.19C24.38 12.44 24.85 11.11 25.16 10.05C26.42 5.74 29 2.62 33.26 0.970001C33.86 0.740001 34.62 0.769995 35.02 0.119995H36.54H36.55Z" fill="black"/>
<path d="M145.73 72.74C145.73 72.15 145.73 71.56 145.73 70.97C145.76 69.53 145.36 67.87 145.96 66.73C146.62 65.47 148.42 66.39 149.71 66.17C153.77 65.47 156.84 60.39 155.43 56.51C151.23 44.91 147.04 33.3 142.77 21.73C142.03 19.73 142.13 18.99 144.58 19.04C150.51 19.17 150.54 19.04 152.32 24.71C154.83 32.69 157.3 40.68 159.8 48.66C159.97 49.2 159.93 49.86 160.81 50.35C161.86 47.04 162.91 43.81 163.93 40.56C165.95 34.11 168.01 27.68 169.94 21.2C170.4 19.65 171.05 19.05 172.72 19.05C179.24 19.04 179.21 18.97 177.02 25.02C172.7 36.93 168.36 48.84 164.13 60.78C162.05 66.66 158.89 71.35 152.33 72.75H145.73V72.74Z" fill="black"/>
<path d="M64.62 31.05C64.62 22.85 64.66 14.65 64.58 6.45001C64.56 4.74001 64.95 4.06001 66.8 4.14001C73.88 4.43001 81.02 3.54001 88.06 4.59001C97.97 6.08001 103.25 13.23 102.6 23.78C102.05 32.69 95 39.31 85.6 39.62C82.22 39.73 78.83 39.75 75.46 39.62C73.63 39.55 72.95 39.97 73.02 41.95C73.18 46.59 73.02 51.25 73.1 55.89C73.13 57.5 72.71 58.06 71 58.08C64.61 58.15 64.61 58.21 64.61 51.83C64.61 44.9 64.61 37.97 64.61 31.04L64.62 31.05ZM73.08 22C73.08 25.04 73.1 28.08 73.08 31.11C73.08 32.07 73.23 32.73 74.43 32.7C78.14 32.6 81.88 32.84 85.55 32.43C90.87 31.84 94.1 27.85 94.29 22.31C94.48 16.82 91.67 12.94 86.48 11.73C82.41 10.77 78.25 11.44 74.13 11.29C72.95 11.25 73.1 12.15 73.09 12.88C73.08 15.92 73.09 18.95 73.09 21.99L73.08 22Z" fill="black"/>
<path d="M130.47 52.1401C125.4 58.1201 118.8 59.9301 112.08 57.3801C107.6 55.6801 104.86 51.6101 104.93 46.7501C105 42.0501 107.63 38.5701 112.3 36.9201C117.42 35.1201 122.79 35.2801 128.09 35.0101C129.91 34.9201 130.58 34.4301 130.51 32.5001C130.36 28.4801 129.08 26.4601 125.62 25.4801C121.31 24.2601 117.09 25.5301 115.2 28.5501C114.74 29.2801 114.73 30.5101 113.49 30.5001C111.47 30.5001 109.42 30.6001 107.44 30.3001C106.56 30.1701 107.02 28.9301 107.2 28.2901C107.98 25.4101 109.61 23.0601 112.16 21.4901C118.24 17.7501 124.68 17.6401 131.13 20.2101C136 22.1601 138.45 26.0901 138.5 31.3301C138.58 39.6201 138.5 47.9001 138.55 56.1901C138.55 57.6401 138.05 58.1801 136.63 58.0501C134.8 57.8801 132.53 58.7801 131.22 57.6601C129.89 56.5301 131.17 54.1401 130.46 52.1301L130.47 52.1401ZM130.47 42.8001C130.15 42.1101 131.11 40.3801 129.58 40.5101C125.07 40.8801 120.38 40.3001 116.1 42.1501C112.38 43.7601 111.94 48.6801 115.3 50.7601C118.76 52.8901 122.42 52.6001 125.92 50.7901C129.05 49.1801 130.55 46.4801 130.47 42.8001V42.8001Z" fill="black"/>
<path d="M784.48 45.45C784.48 67.49 766.61 85.36 744.57 85.36C735.5 85.36 727.14 82.34 720.44 77.25C730.04 69.96 736.24 58.43 736.24 45.45C736.24 32.47 730.04 20.93 720.44 13.64C727.14 8.55003 735.5 5.53003 744.57 5.53003C766.61 5.53003 784.48 23.4 784.48 45.45Z" fill="#F69D1B"/>
<path d="M736.24 45.45C736.24 58.43 730.04 69.96 720.44 77.25C710.85 69.96 704.65 58.43 704.65 45.45C704.65 32.47 710.85 20.93 720.44 13.64C730.04 20.93 736.24 32.47 736.24 45.45Z" fill="#FE5F00"/>
<path d="M720.44 77.25C713.74 82.34 705.38 85.36 696.32 85.36C674.27 85.36 656.4 67.49 656.4 45.45C656.4 23.41 674.27 5.53003 696.32 5.53003C705.38 5.53003 713.74 8.55003 720.44 13.64C710.85 20.93 704.65 32.47 704.65 45.45C704.65 58.43 710.85 69.96 720.44 77.25V77.25Z" fill="#EA011B"/>
<path d="M278.27 58.9399C272.54 63.8599 265.08 66.8299 256.94 66.8299C244.55 66.8299 233.76 59.9399 228.19 49.7799L238.14 41.2999C241.04 48.8599 248.37 54.2199 256.94 54.2199C261.11 54.2199 264.98 52.9599 268.2 50.7899L278.27 58.9399V58.9399Z" fill="#2AAD51"/>
<path d="M278.92 9.79996L269.76 18.5399C266.27 15.6599 261.8 13.94 256.94 13.94C248.48 13.94 241.24 19.16 238.26 26.55L228.18 18.39C233.75 8.21995 244.54 1.32996 256.94 1.32996C265.4 1.32996 273.12 4.52996 278.92 9.79996V9.79996Z" fill="#EB4233"/>
<path d="M289.7 34.08C289.7 36.3 289.48 38.47 289.05 40.57C287.59 47.86 283.7 54.28 278.27 58.94L268.2 50.7899C271.81 48.3499 274.59 44.77 276.02 40.57H256.94V27.96H289.13C289.5 29.94 289.7 31.99 289.7 34.08V34.08Z" fill="#3F89E8"/>
<path d="M236.8 34.0799C236.8 36.6299 237.27 39.0599 238.14 41.2999L228.19 49.7799C225.64 45.1199 224.19 39.7699 224.19 34.0799C224.19 28.3899 225.64 23.0499 228.18 18.3899L238.26 26.5499C237.32 28.8799 236.8 31.4199 236.8 34.0799V34.0799Z" fill="#FAC000"/>
<path d="M386.78 79.5901L396.67 59.5001C396.67 59.5001 388.28 36.2901 384.01 24.7201C383.28 22.7501 383.37 22.0601 385.7 22.0301C391.89 21.9501 392.03 20.7001 393.65 27.9601C395.43 35.9601 397.52 40.3801 399.99 48.2801C400.14 48.7701 400.83 52.0301 401.62 52.9701C401.71 53.0801 401.89 53.0401 401.93 52.9001C402.97 49.6901 404.18 46.7201 405.18 43.5601C407.2 37.1101 409.26 30.6801 411.19 24.2001C411.65 22.6501 412.3 22.0501 413.97 22.0501C420.49 22.0401 420.46 21.9701 418.27 28.0201C413.95 39.9301 409.94 49.5701 405.71 61.5101C403.57 66.9401 399.92 75.1501 397.73 79.6001H386.79L386.78 79.5901Z" fill="#656569"/>
<path d="M305.85 34.05C305.85 25.85 305.89 17.65 305.81 9.45001C305.79 7.74001 306.18 7.06001 308.03 7.14001C315.11 7.43001 322.25 6.54001 329.29 7.59001C339.2 9.08001 344.48 16.23 343.83 26.78C343.28 35.69 336.23 42.31 326.83 42.62C323.45 42.73 320.06 42.75 316.69 42.62C314.86 42.55 314.18 42.97 314.25 44.95C314.41 49.59 314.25 54.25 314.33 58.89C314.36 60.5 313.94 61.06 312.23 61.08C305.84 61.15 305.84 61.21 305.84 54.83C305.84 47.9 305.84 40.97 305.84 34.04L305.85 34.05ZM314.31 25C314.31 28.04 314.33 31.08 314.31 34.11C314.31 35.07 314.46 35.73 315.66 35.7C319.37 35.6 323.11 35.84 326.78 35.43C332.1 34.84 335.33 30.85 335.52 25.31C335.71 19.82 332.9 15.94 327.71 14.73C323.64 13.77 319.48 14.44 315.36 14.29C314.18 14.25 314.33 15.15 314.32 15.88C314.31 18.92 314.32 21.95 314.32 24.99L314.31 25Z" fill="#656569"/>
<path d="M371.69 55.1301C366.62 61.1101 360.02 62.9201 353.3 60.3701C348.82 58.6701 346.08 54.6001 346.15 49.7401C346.22 45.0401 348.85 41.5601 353.52 39.9101C358.64 38.1101 364.01 38.2701 369.31 38.0001C371.13 37.9101 371.8 37.4201 371.73 35.4901C371.58 31.4701 370.3 29.4501 366.84 28.4701C362.53 27.2501 358.31 28.5201 356.42 31.5401C355.96 32.2701 355.95 33.5001 354.71 33.4901C352.69 33.4901 350.64 33.5901 348.66 33.2901C347.78 33.1601 348.24 31.9201 348.42 31.2801C349.2 28.4001 350.83 26.0501 353.38 24.4801C359.46 20.7401 365.9 20.6301 372.35 23.2001C377.22 25.1501 379.67 29.0801 379.72 34.3201C379.8 42.6101 379.72 50.8901 379.77 59.1801C379.77 60.6301 379.27 61.1701 377.85 61.0401C376.02 60.8701 373.75 61.7701 372.44 60.6501C371.11 59.5201 372.39 57.1301 371.68 55.1201L371.69 55.1301ZM371.69 45.7901C371.37 45.1001 372.33 43.3701 370.8 43.5001C366.29 43.8701 361.6 43.2901 357.32 45.1401C353.6 46.7501 353.16 51.6701 356.52 53.7501C359.98 55.8801 363.64 55.5901 367.14 53.7801C370.27 52.1701 371.77 49.4701 371.69 45.7901Z" fill="#656569"/>
</svg>